<?xml version="1.0" encoding="UTF-8" standalone="no"?>
<!DOCTYPE svg PUBLIC "-//W3C//DTD SVG 1.1//EN"
 "http://www.w3.org/Graphics/SVG/1.1/DTD/svg11.dtd">
<!-- Generated by graphviz version 2.38.0 (20140413.2041)
 -->
<!-- Title: %3 Pages: 1 -->
<svg width="222pt" height="260pt"
 viewBox="0.00 0.00 222.24 260.00" xmlns="http://www.w3.org/2000/svg" xmlns:xlink="http://www.w3.org/1999/xlink">
<g id="graph0" class="graph" transform="scale(1 1) rotate(0) translate(4 256)">
<title>%3</title>
<polygon fill="white" stroke="none" points="-4,4 -4,-256 218.236,-256 218.236,4 -4,4"/>
<!-- SC -->
<g id="node1" class="node"><title>SC</title>
<ellipse fill="none" stroke="black" cx="124.215" cy="-18" rx="27" ry="18"/>
<text text-anchor="middle" x="124.215" y="-13.8" font-family="Times,serif" font-size="14.00">SC</text>
</g>
<!-- ST -->
<g id="node2" class="node"><title>ST</title>
<ellipse fill="none" stroke="black" cx="95.2155" cy="-90" rx="27" ry="18"/>
<text text-anchor="middle" x="95.2155" y="-85.8" font-family="Times,serif" font-size="14.00">ST</text>
</g>
<!-- SC&#45;&gt;ST -->
<g id="edge1" class="edge"><title>SC&#45;&gt;ST</title>
<path fill="none" stroke="black" d="M117.343,-35.589C113.948,-43.7836 109.773,-53.8605 105.968,-63.0452"/>
<polygon fill="black" stroke="black" points="102.633,-61.9519 102.039,-72.5301 109.1,-64.6311 102.633,-61.9519"/>
</g>
<!-- CGast -->
<g id="node3" class="node"><title>CGast</title>
<ellipse fill="none" stroke="black" cx="32.2155" cy="-162" rx="32.4324" ry="18"/>
<text text-anchor="middle" x="32.2155" y="-157.8" font-family="Times,serif" font-size="14.00">CGast</text>
</g>
<!-- SC&#45;&gt;CGast -->
<g id="edge3" class="edge"><title>SC&#45;&gt;CGast</title>
<path fill="none" stroke="black" d="M104.482,-30.5571C89.9989,-39.9923 70.8921,-54.585 59.2155,-72 46.6792,-90.6971 39.7896,-115.425 36.1144,-134.07"/>
<polygon fill="black" stroke="black" points="32.6556,-133.53 34.3457,-143.989 39.5469,-134.759 32.6556,-133.53"/>
</g>
<!-- CGmips -->
<g id="node4" class="node"><title>CGmips</title>
<ellipse fill="none" stroke="black" cx="160.215" cy="-162" rx="39.6818" ry="18"/>
<text text-anchor="middle" x="160.215" y="-157.8" font-family="Times,serif" font-size="14.00">CGmips</text>
</g>
<!-- SC&#45;&gt;CGmips -->
<g id="edge5" class="edge"><title>SC&#45;&gt;CGmips</title>
<path fill="none" stroke="black" d="M128.487,-35.8469C134.624,-60.0561 146.005,-104.946 153.337,-133.867"/>
<polygon fill="black" stroke="black" points="149.988,-134.899 155.838,-143.732 156.773,-133.179 149.988,-134.899"/>
</g>
<!-- P0 -->
<g id="node5" class="node"><title>P0</title>
<ellipse fill="none" stroke="black" cx="126.215" cy="-234" rx="27" ry="18"/>
<text text-anchor="middle" x="126.215" y="-229.8" font-family="Times,serif" font-size="14.00">P0</text>
</g>
<!-- SC&#45;&gt;P0 -->
<g id="edge6" class="edge"><title>SC&#45;&gt;P0</title>
<path fill="none" stroke="black" d="M138.568,-33.572C158.942,-55.3953 195.319,-98.852 209.215,-144 213.922,-159.292 216.904,-165.968 209.215,-180 198.582,-199.407 177.482,-212.739 159.219,-221.177"/>
<polygon fill="black" stroke="black" points="157.797,-217.979 149.998,-225.15 160.566,-224.407 157.797,-217.979"/>
</g>
<!-- ST&#45;&gt;CGast -->
<g id="edge2" class="edge"><title>ST&#45;&gt;CGast</title>
<path fill="none" stroke="black" d="M81.8548,-105.845C73.4503,-115.184 62.4324,-127.426 52.9124,-138.003"/>
<polygon fill="black" stroke="black" points="50.0806,-135.918 45.9924,-145.692 55.2836,-140.601 50.0806,-135.918"/>
</g>
<!-- ST&#45;&gt;CGmips -->
<g id="edge4" class="edge"><title>ST&#45;&gt;CGmips</title>
<path fill="none" stroke="black" d="M109,-105.845C117.553,-115.056 128.728,-127.091 138.457,-137.568"/>
<polygon fill="black" stroke="black" points="136.178,-140.257 145.547,-145.203 141.307,-135.494 136.178,-140.257"/>
</g>
<!-- ST&#45;&gt;P0 -->
<g id="edge7" class="edge"><title>ST&#45;&gt;P0</title>
<path fill="none" stroke="black" d="M97.7894,-108.163C100.608,-126.161 105.496,-155.219 111.215,-180 113.203,-188.612 115.711,-197.913 118.104,-206.284"/>
<polygon fill="black" stroke="black" points="114.757,-207.309 120.923,-215.924 121.475,-205.344 114.757,-207.309"/>
</g>
<!-- CGast&#45;&gt;P0 -->
<g id="edge9" class="edge"><title>CGast&#45;&gt;P0</title>
<path fill="none" stroke="black" d="M50.7869,-176.83C65.0526,-187.453 84.9154,-202.245 100.677,-213.982"/>
<polygon fill="black" stroke="black" points="98.8396,-216.978 108.95,-220.143 103.02,-211.363 98.8396,-216.978"/>
</g>
<!-- CGmips&#45;&gt;P0 -->
<g id="edge8" class="edge"><title>CGmips&#45;&gt;P0</title>
<path fill="none" stroke="black" d="M151.985,-179.945C147.959,-188.233 143.03,-198.382 138.564,-207.576"/>
<polygon fill="black" stroke="black" points="135.357,-206.169 134.136,-216.693 141.653,-209.227 135.357,-206.169"/>
</g>
</g>
</svg>
